<svg width="38" height="49" viewBox="0 0 38 49" fill="none" xmlns="http://www.w3.org/2000/svg">
<path d="M35.6137 37.1446L33.7456 39.0514C34.2655 40.1399 34.5416 41.3427 34.5416 42.5893V47.2165C34.5416 47.6491 34.1979 47.9998 33.7741 47.9998C33.3503 47.9998 33.0066 47.6491 33.0066 47.2165V42.5893C33.0066 39.1607 30.424 36.3653 27.146 36.0943L23.959 47.4325C23.8624 47.7762 23.5553 48 23.2216 48C22.7114 48 22.343 47.5007 22.4835 47.0005L25.5882 35.9553C24.3394 35.6759 23.2508 34.8953 22.5659 33.7476C22.3454 33.3782 22.4601 32.8963 22.8221 32.6711C23.1839 32.4459 23.6562 32.5631 23.8768 32.9326C24.435 33.868 25.3894 34.444 26.453 34.4987C26.5483 34.4825 26.6477 34.4846 26.747 34.5074C29.1432 34.5457 31.4009 35.667 32.9155 37.6831L34.5283 36.0369C35.1546 35.3977 35.213 34.3806 34.6642 33.6711C33.4471 32.0987 33.7565 30.1965 34.9234 29.0736C35.5787 28.443 35.6529 27.3855 35.0921 26.6661L33.9874 25.2486C33.3222 24.3952 33.1056 23.2612 33.408 22.2152L34.1222 19.7447C34.3768 18.8644 33.9411 17.938 33.109 17.59L32.1663 17.1958C30.9285 16.678 30.1286 15.4616 30.1286 14.0966V11.5754C30.1286 6.60779 26.1692 2.56669 21.3026 2.56669H16.6977C11.831 2.56669 7.87168 6.60799 7.87168 11.5754V14.0966C7.87168 15.4616 7.07188 16.678 5.83403 17.1958L4.89128 17.59C4.05914 17.938 3.62359 18.8644 3.87801 19.7447L4.59225 22.2152C4.89463 23.2612 4.67811 24.3952 4.0129 25.2486L2.90811 26.6661C2.34747 27.3855 2.42162 28.4429 3.07686 29.0736C4.24573 30.1984 4.55167 32.1002 3.33588 33.6713C2.78714 34.3807 2.84556 35.3977 3.47182 36.0369L5.08468 37.6831C6.56956 35.7066 8.846 34.5042 11.38 34.5042C13.1513 34.5042 14.587 33.0475 14.587 31.2396V31.0338C11.4147 29.4921 9.29325 26.4379 8.83151 23.0167C8.77366 22.5881 9.06722 22.1928 9.48703 22.1338C9.90675 22.0746 10.2942 22.3744 10.3521 22.8028C10.9431 27.1824 14.6609 30.4851 19 30.4851C23.8138 30.4851 27.7301 26.4879 27.7301 21.5747V16.7457C25.9358 16.082 24.3708 14.8052 23.3484 13.0206C19.6473 17.4092 14.3626 19.9623 8.7657 20.1909C8.34311 20.2084 7.98517 19.8725 7.96819 19.4395C7.95121 19.0072 8.28084 18.6428 8.7044 18.6255C14.2313 18.3999 19.4388 15.7288 22.8988 11.0998C23.2603 10.616 24.0026 10.7207 24.2223 11.2859C25.028 13.3576 26.7199 14.8471 28.7074 15.4235C28.9998 15.5071 29.2369 15.7763 29.2622 16.1175C29.267 16.1818 29.2658 21.6234 29.2648 21.6567C29.2124 28.5598 22.6816 33.5961 16.1059 31.6248C16.0061 32.9227 15.4007 34.1446 14.3464 35.009L19 38.6862L21.737 36.5236C22.0724 36.2587 22.5543 36.3215 22.8137 36.6634C23.0732 37.0055 23.0118 37.4975 22.6767 37.7623L19.7675 40.0611V45.6498C19.7675 46.0824 19.4239 46.4332 19 46.4332C18.5762 46.4332 18.2325 46.0824 18.2325 45.6498V40.0612L12.8732 35.8264C12.0408 36.1066 11.3071 36.071 11.3802 36.071C7.85039 36.0709 4.99354 38.9862 4.99354 42.5894V47.2165C4.99354 47.6491 4.6499 47.9998 4.22606 47.9998C3.80222 47.9998 3.45858 47.6491 3.45858 47.2165V42.5893C3.45858 41.3427 3.73468 40.1399 4.25456 39.0514L2.38642 37.1446C1.29324 36.0289 1.00457 34.156 2.19656 32.6156C2.76171 31.885 2.68746 30.8522 2.02369 30.2134C0.792651 29.0288 0.65345 27.0422 1.70672 25.6908L2.8115 24.2732C3.1656 23.8189 3.28082 23.2153 3.11984 22.6584L2.4056 20.188C1.92746 18.5341 2.74579 16.7939 4.30905 16.1401L5.2518 15.7459C5.91068 15.4704 6.33644 14.8229 6.33644 14.0965V11.5753C6.33682 5.74417 10.9848 1.00003 16.6978 1.00003H21.3027C27.0157 1.00003 31.6636 5.74398 31.6636 11.575V14.0966C31.6636 14.823 32.0894 15.4705 32.7484 15.7461L33.691 16.1402C35.2544 16.794 36.0727 18.5342 35.5946 20.1881L34.8803 22.6585C34.7193 23.2154 34.8346 23.819 35.1886 24.2733L36.2934 25.6908C37.3467 27.0422 37.2074 29.0289 35.9765 30.2134C35.3127 30.8522 35.2384 31.885 35.8037 32.6158C36.9759 34.1303 36.7275 36.0079 35.6137 37.1446ZM13.2153 38.6808C13.1 38.2644 12.676 38.022 12.2681 38.1398C11.8602 38.2574 11.6228 38.6902 11.738 39.1065L14.0405 47.4294C14.1557 47.8458 14.5798 48.0879 14.9877 47.9704C15.3956 47.8528 15.6329 47.42 15.5177 47.0036L13.2153 38.6808Z" fill="#4C1DD2" stroke="#4C1DD2" stroke-width="0.5"/>
</svg>
