<svg width="44" height="44" viewBox="0 0 44 44" fill="none" xmlns="http://www.w3.org/2000/svg">
<path d="M22.0001 3.80121C20.6432 3.80121 19.5392 4.90716 19.5392 6.26655C19.5392 7.62593 20.6432 8.73188 22.0001 8.73188C23.3571 8.73188 24.461 7.62593 24.461 6.26655C24.461 4.90716 23.3571 3.80121 22.0001 3.80121ZM22.0001 7.49922C21.3216 7.49922 20.7697 6.94624 20.7697 6.26655C20.7697 5.58686 21.3216 5.03388 22.0001 5.03388C22.6786 5.03388 23.2306 5.58686 23.2306 6.26655C23.2306 6.94624 22.6787 7.49922 22.0001 7.49922ZM42.9995 10.4067C42.9951 10.1887 42.8639 9.94384 42.622 9.84786L22.5738 1.11951C22.2093 0.960246 21.7909 0.960246 21.4271 1.11926L1.37825 9.84786C1.16702 9.93817 0.992135 10.1623 1.00034 10.4251V12.4399C1.00034 13.6861 2.01227 14.6998 3.25618 14.6998H3.74066C3.56257 15.0302 3.46126 15.408 3.46126 15.8091C3.46126 17.1005 4.51002 18.1512 5.79913 18.1512C5.98198 18.1512 6.16015 18.1278 6.33233 18.0872V35.6587C5.53278 35.5467 4.77375 36.1058 4.77375 36.9324V38.1004H3.25618C2.01227 38.1004 1.00034 39.1142 1.00034 40.3603V41.9728C1.00034 42.5393 1.46028 43 2.02572 43H41.9747C42.5401 43 43.0001 42.5393 43.0001 41.9728V40.3603C43.0001 39.1142 41.9881 38.1004 40.7442 38.1004H39.2266V36.9324C39.226 36.0676 38.4642 35.5728 37.6681 35.6587V18.0872C37.8402 18.1278 38.0184 18.1512 38.2013 18.1512C39.4904 18.1512 40.5391 17.1005 40.5391 15.8091C40.5391 15.408 40.4378 15.0302 40.2597 14.6998H40.7442C41.9881 14.6998 43.0001 13.6861 43.0001 12.4399V10.4252C42.9998 10.4199 43.0005 10.421 42.9995 10.4067ZM5.79905 16.9184C5.18842 16.9184 4.69164 16.4208 4.69164 15.809C4.69164 15.1981 5.1871 14.7011 5.79667 14.6997H12.4459C13.0555 14.701 13.551 15.198 13.551 15.809C13.551 16.4208 13.0542 16.9184 12.4435 16.9184C11.9162 16.9184 11.4598 16.5437 11.3582 16.0275C11.2924 15.6937 10.969 15.4761 10.6355 15.5421C10.3021 15.608 10.0852 15.9321 10.1509 16.2661C10.2318 16.677 10.4189 17.0454 10.6799 17.3454V27.984C10.6799 28.3244 10.9553 28.6003 11.2951 28.6003C11.635 28.6003 11.9103 28.3244 11.9103 27.984V18.0872C12.0825 18.1278 12.2607 18.1512 12.4435 18.1512C13.7327 18.1512 14.7814 17.1005 14.7814 15.8091C14.7814 15.408 14.6801 15.0302 14.502 14.6998H16.6195C16.4414 15.0302 16.3401 15.408 16.3401 15.8091C16.3401 17.1005 17.3888 18.1512 18.678 18.1512C18.8608 18.1512 19.039 18.1278 19.2112 18.0872V35.6587C18.4113 35.5463 17.6526 36.106 17.6526 36.9324V38.1004H13.469V36.9324C13.4683 36.0678 12.7066 35.5727 11.9104 35.6587V30.8602C11.9104 30.5198 11.635 30.2439 11.2952 30.2439C10.9553 30.2439 10.68 30.5198 10.68 30.8602V35.6587H7.56279V17.3453C7.82382 17.0454 8.01085 16.677 8.09173 16.266C8.15752 15.9321 7.94055 15.6079 7.60717 15.542C7.27372 15.4763 6.95027 15.6935 6.88448 16.0275C6.78285 16.5438 6.32635 16.9184 5.79905 16.9184ZM27.3808 14.6998H29.4983C29.3202 15.0302 29.2189 15.408 29.2189 15.8091C29.2189 17.1005 30.2677 18.1512 31.5568 18.1512C31.7396 18.1512 31.9178 18.1278 32.09 18.0872V35.6587C31.2898 35.5458 30.5315 36.1064 30.5314 36.9324V38.1004H26.3478V36.9324C26.3472 36.0678 25.5854 35.5727 24.7892 35.6587V18.0872C24.9614 18.1278 25.1396 18.1512 25.3224 18.1512C26.6116 18.1512 27.6603 17.1005 27.6603 15.8091C27.6602 15.408 27.5589 15.0302 27.3808 14.6998ZM25.1173 36.9324V38.1004H18.8829V36.9324C18.8829 36.9097 18.9014 36.8913 18.924 36.8913H25.0763C25.0989 36.8913 25.1173 36.9097 25.1173 36.9324ZM25.3224 16.9184C24.7951 16.9184 24.3386 16.5437 24.237 16.0275C24.1712 15.6937 23.8476 15.4761 23.5143 15.5421C23.1809 15.608 22.964 15.9321 23.0298 16.2661C23.1106 16.677 23.2977 17.0454 23.5587 17.3454V35.6587H20.4415V17.3453C20.7026 17.0454 20.8896 16.677 20.9705 16.266C21.0363 15.9321 20.8193 15.6079 20.4859 15.542C20.1525 15.4763 19.829 15.6935 19.7632 16.0275C19.6616 16.5437 19.2051 16.9184 18.6779 16.9184C18.0672 16.9184 17.5705 16.4207 17.5705 15.809C17.5705 15.198 18.0659 14.701 18.6755 14.6996H25.3247C25.9343 14.7009 26.4298 15.198 26.4298 15.809C26.4298 16.4208 25.9331 16.9184 25.3224 16.9184ZM6.00413 36.9324C6.00413 36.9097 6.02259 36.8913 6.04514 36.8913H12.1974C12.22 36.8913 12.2385 36.9097 12.2385 36.9324V38.1004H6.00413V36.9324ZM40.7441 39.3331C41.3096 39.3331 41.7695 39.7939 41.7695 40.3603V41.7674H2.23072V40.3603C2.23072 39.7939 2.69066 39.3331 3.2561 39.3331H40.7441ZM37.9551 36.8913C37.9776 36.8913 37.9961 36.9097 37.9961 36.9324V38.1004H31.7618V36.9324C31.7618 36.9097 31.7802 36.8913 31.8028 36.8913H37.9551ZM38.2012 16.9184C37.6739 16.9184 37.2175 16.5437 37.1158 16.0275C37.05 15.6937 36.7266 15.4761 36.3931 15.5421C36.0598 15.608 35.8428 15.9321 35.9086 16.2661C35.9895 16.677 36.1765 17.0454 36.4375 17.3454V35.6587H33.3204V17.3453C33.5814 17.0454 33.7684 16.677 33.8493 16.266C33.9151 15.9321 33.6981 15.6079 33.3647 15.542C33.0315 15.4763 32.7078 15.6935 32.642 16.0275C32.5404 16.5437 32.0839 16.9184 31.5567 16.9184C30.9461 16.9184 30.4493 16.4207 30.4493 15.809C30.4493 15.198 30.9447 14.701 31.5543 14.6996H38.2036C38.8131 14.7009 39.3086 15.198 39.3086 15.809C39.3086 16.4208 38.8119 16.9184 38.2012 16.9184ZM41.7695 12.4399C41.7695 13.0064 41.3096 13.4671 40.7441 13.4671H3.2561C2.69066 13.4671 2.23072 13.0064 2.23072 12.4399V11.0329H30.9569C31.2967 11.0329 31.5721 10.7569 31.5721 10.4165C31.5721 10.0761 31.2967 9.8002 30.9569 9.8002H4.57474L21.9182 2.24945C21.9703 2.22669 22.03 2.22669 22.0827 2.2497L39.4255 9.80011H33.8279C33.488 9.80011 33.2126 10.0761 33.2126 10.4164C33.2126 10.7568 33.488 11.0328 33.8279 11.0328H41.7694L41.7695 12.4399Z" fill="#4C1DD2" stroke="#4C1DD2" stroke-width="0.5"/>
</svg>
