<svg width="20" height="13" viewBox="0 0 20 13" fill="none" xmlns="http://www.w3.org/2000/svg">
<path d="M9.99987 4.00462C12.209 4.00462 13.9999 5.79549 13.9999 8.00462C13.9999 10.2138 12.209 12.0046 9.99987 12.0046C7.79073 12.0046 5.99987 10.2138 5.99987 8.00462C5.99987 5.79549 7.79073 4.00462 9.99987 4.00462ZM9.99987 0.5C14.6134 0.5 18.596 3.65001 19.701 8.06439C19.8016 8.4662 19.5574 8.87348 19.1556 8.97406C18.7537 9.07465 18.3465 8.83045 18.2459 8.42863C17.307 4.67796 13.9212 2 9.99987 2C6.07681 2 2.68997 4.68026 1.75273 8.43315C1.65237 8.83502 1.24523 9.07944 0.843357 8.97908C0.441486 8.87872 0.197065 8.47158 0.297428 8.06971C1.40052 3.65272 5.38436 0.5 9.99987 0.5Z" fill="white"/>
</svg>
