<svg width="45" height="45" viewBox="0 0 45 45" fill="none" xmlns="http://www.w3.org/2000/svg">
<path d="M17.4834 31.1H27.5167V32.5334H17.4834V31.1Z" fill="#4C1DD2"/>
<path d="M14.6167 31.1H16.0501V32.5334H14.6167V31.1Z" fill="#4C1DD2"/>
<path d="M43.2834 3.8667H33.2501V3.15003C33.2484 2.58034 33.0213 2.03447 32.6185 1.63163C32.2156 1.2288 31.6698 1.00173 31.1001 1.00003H13.9001C13.3304 1.00173 12.7845 1.2288 12.3817 1.63163C11.9788 2.03447 11.7518 2.58034 11.7501 3.15003V6.0167H1.71673C1.52666 6.0167 1.34437 6.0922 1.20997 6.2266C1.07557 6.361 1.00006 6.54329 1.00006 6.73336V15.3334C1.00006 15.5234 1.07557 15.7057 1.20997 15.8401C1.34437 15.9745 1.52666 16.05 1.71673 16.05H11.7501V17.4834C10.7997 17.4834 9.88827 17.8609 9.21626 18.5329C8.54426 19.2049 8.16673 20.1163 8.16673 21.0667V23.9979L9.60006 39.012V43.2834C9.60006 43.4734 9.67557 43.6557 9.80997 43.7901C9.94437 43.9245 10.1267 44 10.3167 44H26.0834C26.2735 44 26.4558 43.9245 26.5902 43.7901C26.7246 43.6557 26.8001 43.4734 26.8001 43.2834V39.2127L29.4661 35.4H31.1001C31.6698 35.3983 32.2156 35.1713 32.6185 34.7684C33.0213 34.3656 33.2484 33.8197 33.2501 33.25V32.5334H33.9667C34.5501 32.5355 35.1202 32.3588 35.6002 32.0272C36.0802 31.6956 36.4472 31.225 36.6517 30.6786C36.8562 30.1322 36.8884 29.5363 36.7441 28.971C36.5998 28.4057 36.2858 27.8982 35.8444 27.5167C36.1546 27.2509 36.4035 26.9211 36.5743 26.55C36.745 26.1789 36.8333 25.7752 36.8333 25.3667C36.8333 24.9582 36.745 24.5545 36.5743 24.1834C36.4035 23.8123 36.1546 23.4825 35.8444 23.2167C36.1546 22.9509 36.4035 22.6211 36.5743 22.25C36.745 21.8789 36.8333 21.4752 36.8333 21.0667C36.8333 20.6582 36.745 20.2545 36.5743 19.8834C36.4035 19.5123 36.1546 19.1825 35.8444 18.9167C36.2858 18.5352 36.5998 18.0277 36.7441 17.4624C36.8884 16.8971 36.8562 16.3012 36.6517 15.7548C36.4472 15.2084 36.0802 14.7378 35.6002 14.4062C35.1202 14.0746 34.5501 13.8979 33.9667 13.9H33.2501V12.4667H43.2834C43.4735 12.4667 43.6558 12.3912 43.7902 12.2568C43.9246 12.1224 44.0001 11.9401 44.0001 11.75V4.58336C44.0001 4.39329 43.9246 4.21101 43.7902 4.0766C43.6558 3.9422 43.4735 3.8667 43.2834 3.8667ZM28.0327 2.43336L27.8106 3.32203C27.7721 3.47741 27.6828 3.61545 27.5568 3.71416C27.4309 3.81288 27.2754 3.86657 27.1154 3.8667H17.8847C17.7247 3.86657 17.5693 3.81288 17.4433 3.71416C17.3173 3.61545 17.228 3.47741 17.1896 3.32203L16.9674 2.43336H28.0327ZM2.43339 14.6167V7.45003H15.3334V14.6167H2.43339ZM25.3667 42.5667H11.0334V39.7H25.3667V42.5667ZM25.7107 38.2667H10.9689L9.60006 23.9334V21.0667C9.60176 20.497 9.82882 19.9511 10.2317 19.5483C10.6345 19.1455 11.1804 18.9184 11.7501 18.9167H16.7667C17.3369 18.9167 17.8838 19.1432 18.287 19.5464C18.6902 19.9496 18.9167 20.4965 18.9167 21.0667C18.9167 21.6369 18.6902 22.1838 18.287 22.587C17.8838 22.9902 17.3369 23.2167 16.7667 23.2167H12.4667C12.2767 23.2167 12.0944 23.2922 11.96 23.4266C11.8256 23.561 11.7501 23.7433 11.7501 23.9334V33.25C11.7518 33.8197 11.9788 34.3656 12.3817 34.7684C12.7845 35.1713 13.3304 35.3983 13.9001 35.4H27.7174L25.7107 38.2667ZM31.8167 33.25C31.8167 33.4401 31.7412 33.6224 31.6068 33.7568C31.4724 33.8912 31.2901 33.9667 31.1001 33.9667H13.9001C13.71 33.9667 13.5277 33.8912 13.3933 33.7568C13.2589 33.6224 13.1834 33.4401 13.1834 33.25V24.65H16.7667C17.7171 24.65 18.6285 24.2725 19.3005 23.6005C19.9725 22.9285 20.3501 22.0171 20.3501 21.0667C20.3501 20.1163 19.9725 19.2049 19.3005 18.5329C18.6285 17.8609 17.7171 17.4834 16.7667 17.4834H13.1834V16.05H16.0501C16.2401 16.05 16.4224 15.9745 16.5568 15.8401C16.6912 15.7057 16.7667 15.5234 16.7667 15.3334V6.73336C16.7667 6.54329 16.6912 6.361 16.5568 6.2266C16.4224 6.0922 16.2401 6.0167 16.0501 6.0167H13.1834V3.15003C13.1834 2.95996 13.2589 2.77767 13.3933 2.64327C13.5277 2.50887 13.71 2.43336 13.9001 2.43336H15.4911L15.7992 3.6732C15.9158 4.13799 16.1844 4.55051 16.5622 4.84525C16.9401 5.13999 17.4055 5.30006 17.8847 5.30003H27.1154C27.5946 5.30006 28.0601 5.13999 28.4379 4.84525C28.8157 4.55051 29.0843 4.13799 29.2009 3.6732L29.5091 2.43336H31.1001C31.2901 2.43336 31.4724 2.50887 31.6068 2.64327C31.7412 2.77767 31.8167 2.95996 31.8167 3.15003V3.8667H30.3834C30.1933 3.8667 30.011 3.9422 29.8766 4.0766C29.7422 4.21101 29.6667 4.39329 29.6667 4.58336V11.75C29.6667 11.9401 29.7422 12.1224 29.8766 12.2568C30.011 12.3912 30.1933 12.4667 30.3834 12.4667H31.8167V13.9H31.1001C30.5167 13.8979 29.9466 14.0746 29.4666 14.4062C28.9866 14.7378 28.6196 15.2084 28.4151 15.7548C28.2106 16.3012 28.1784 16.8971 28.3227 17.4624C28.467 18.0277 28.781 18.5352 29.2224 18.9167C28.9122 19.1825 28.6632 19.5123 28.4925 19.8834C28.3218 20.2545 28.2334 20.6582 28.2334 21.0667C28.2334 21.4752 28.3218 21.8789 28.4925 22.25C28.6632 22.6211 28.9122 22.9509 29.2224 23.2167C28.9122 23.4825 28.6632 23.8123 28.4925 24.1834C28.3218 24.5545 28.2334 24.9582 28.2334 25.3667C28.2334 25.7752 28.3218 26.1789 28.4925 26.55C28.6632 26.9211 28.9122 27.2509 29.2224 27.5167C28.781 27.8982 28.467 28.4057 28.3227 28.971C28.1784 29.5363 28.2106 30.1322 28.4151 30.6786C28.6196 31.225 28.9866 31.6956 29.4666 32.0272C29.9466 32.3588 30.5167 32.5355 31.1001 32.5334H31.8167V33.25ZM33.9667 31.1H31.1001C30.7199 31.1 30.3553 30.949 30.0865 30.6802C29.8177 30.4114 29.6667 30.0468 29.6667 29.6667C29.6667 29.2866 29.8177 28.922 30.0865 28.6532C30.3553 28.3844 30.7199 28.2334 31.1001 28.2334H33.9667C34.3469 28.2334 34.7114 28.3844 34.9802 28.6532C35.2491 28.922 35.4001 29.2866 35.4001 29.6667C35.4001 30.0468 35.2491 30.4114 34.9802 30.6802C34.7114 30.949 34.3469 31.1 33.9667 31.1ZM33.9667 26.8H31.1001C30.7199 26.8 30.3553 26.649 30.0865 26.3802C29.8177 26.1114 29.6667 25.7468 29.6667 25.3667C29.6667 24.9866 29.8177 24.622 30.0865 24.3532C30.3553 24.0844 30.7199 23.9334 31.1001 23.9334H33.9667C34.3469 23.9334 34.7114 24.0844 34.9802 24.3532C35.2491 24.622 35.4001 24.9866 35.4001 25.3667C35.4001 25.7468 35.2491 26.1114 34.9802 26.3802C34.7114 26.649 34.3469 26.8 33.9667 26.8ZM33.9667 22.5H31.1001C30.7199 22.5 30.3553 22.349 30.0865 22.0802C29.8177 21.8114 29.6667 21.4468 29.6667 21.0667C29.6667 20.6866 29.8177 20.322 30.0865 20.0532C30.3553 19.7844 30.7199 19.6334 31.1001 19.6334H33.9667C34.3469 19.6334 34.7114 19.7844 34.9802 20.0532C35.2491 20.322 35.4001 20.6866 35.4001 21.0667C35.4001 21.4468 35.2491 21.8114 34.9802 22.0802C34.7114 22.349 34.3469 22.5 33.9667 22.5ZM33.9667 15.3334C34.3469 15.3334 34.7114 15.4844 34.9802 15.7532C35.2491 16.022 35.4001 16.3866 35.4001 16.7667C35.4001 17.1468 35.2491 17.5114 34.9802 17.7802C34.7114 18.049 34.3469 18.2 33.9667 18.2H31.1001C30.7199 18.2 30.3553 18.049 30.0865 17.7802C29.8177 17.5114 29.6667 17.1468 29.6667 16.7667C29.6667 16.3866 29.8177 16.022 30.0865 15.7532C30.3553 15.4844 30.7199 15.3334 31.1001 15.3334H33.9667ZM42.5667 11.0334H31.1001V5.30003H42.5667V11.0334Z" fill="#4C1DD2"/>
<path d="M3.86673 8.88336H5.30006V10.3167H3.86673V8.88336Z" fill="#4C1DD2"/>
<path d="M6.73339 8.88336H13.9001V10.3167H6.73339V8.88336Z" fill="#4C1DD2"/>
<path d="M3.86673 11.75H13.9001V13.1834H3.86673V11.75Z" fill="#4C1DD2"/>
<path d="M32.5334 7.45003H35.4001V8.88336H32.5334V7.45003Z" fill="#4C1DD2"/>
<path d="M36.8334 7.45003H41.1334V8.88336H36.8334V7.45003Z" fill="#4C1DD2"/>
<path d="M17.4834 31.1H27.5167V32.5334H17.4834V31.1Z" stroke="#4C1DD2" stroke-width="0.5"/>
<path d="M14.6167 31.1H16.0501V32.5334H14.6167V31.1Z" stroke="#4C1DD2" stroke-width="0.5"/>
<path d="M43.2834 3.8667H33.2501V3.15003C33.2484 2.58034 33.0213 2.03447 32.6185 1.63163C32.2156 1.2288 31.6698 1.00173 31.1001 1.00003H13.9001C13.3304 1.00173 12.7845 1.2288 12.3817 1.63163C11.9788 2.03447 11.7518 2.58034 11.7501 3.15003V6.0167H1.71673C1.52666 6.0167 1.34437 6.0922 1.20997 6.2266C1.07557 6.361 1.00006 6.54329 1.00006 6.73336V15.3334C1.00006 15.5234 1.07557 15.7057 1.20997 15.8401C1.34437 15.9745 1.52666 16.05 1.71673 16.05H11.7501V17.4834C10.7997 17.4834 9.88827 17.8609 9.21626 18.5329C8.54426 19.2049 8.16673 20.1163 8.16673 21.0667V23.9979L9.60006 39.012V43.2834C9.60006 43.4734 9.67557 43.6557 9.80997 43.7901C9.94437 43.9245 10.1267 44 10.3167 44H26.0834C26.2735 44 26.4558 43.9245 26.5902 43.7901C26.7246 43.6557 26.8001 43.4734 26.8001 43.2834V39.2127L29.4661 35.4H31.1001C31.6698 35.3983 32.2156 35.1713 32.6185 34.7684C33.0213 34.3656 33.2484 33.8197 33.2501 33.25V32.5334H33.9667C34.5501 32.5355 35.1202 32.3588 35.6002 32.0272C36.0802 31.6956 36.4472 31.225 36.6517 30.6786C36.8562 30.1322 36.8884 29.5363 36.7441 28.971C36.5998 28.4057 36.2858 27.8982 35.8444 27.5167C36.1546 27.2509 36.4035 26.9211 36.5743 26.55C36.745 26.1789 36.8333 25.7752 36.8333 25.3667C36.8333 24.9582 36.745 24.5545 36.5743 24.1834C36.4035 23.8123 36.1546 23.4825 35.8444 23.2167C36.1546 22.9509 36.4035 22.6211 36.5743 22.25C36.745 21.8789 36.8333 21.4752 36.8333 21.0667C36.8333 20.6582 36.745 20.2545 36.5743 19.8834C36.4035 19.5123 36.1546 19.1825 35.8444 18.9167C36.2858 18.5352 36.5998 18.0277 36.7441 17.4624C36.8884 16.8971 36.8562 16.3012 36.6517 15.7548C36.4472 15.2084 36.0802 14.7378 35.6002 14.4062C35.1202 14.0746 34.5501 13.8979 33.9667 13.9H33.2501V12.4667H43.2834C43.4735 12.4667 43.6558 12.3912 43.7902 12.2568C43.9246 12.1224 44.0001 11.9401 44.0001 11.75V4.58336C44.0001 4.39329 43.9246 4.21101 43.7902 4.0766C43.6558 3.9422 43.4735 3.8667 43.2834 3.8667ZM28.0327 2.43336L27.8106 3.32203C27.7721 3.47741 27.6828 3.61545 27.5568 3.71416C27.4309 3.81288 27.2754 3.86657 27.1154 3.8667H17.8847C17.7247 3.86657 17.5693 3.81288 17.4433 3.71416C17.3173 3.61545 17.228 3.47741 17.1896 3.32203L16.9674 2.43336H28.0327ZM2.43339 14.6167V7.45003H15.3334V14.6167H2.43339ZM25.3667 42.5667H11.0334V39.7H25.3667V42.5667ZM25.7107 38.2667H10.9689L9.60006 23.9334V21.0667C9.60176 20.497 9.82882 19.9511 10.2317 19.5483C10.6345 19.1455 11.1804 18.9184 11.7501 18.9167H16.7667C17.3369 18.9167 17.8838 19.1432 18.287 19.5464C18.6902 19.9496 18.9167 20.4965 18.9167 21.0667C18.9167 21.6369 18.6902 22.1838 18.287 22.587C17.8838 22.9902 17.3369 23.2167 16.7667 23.2167H12.4667C12.2767 23.2167 12.0944 23.2922 11.96 23.4266C11.8256 23.561 11.7501 23.7433 11.7501 23.9334V33.25C11.7518 33.8197 11.9788 34.3656 12.3817 34.7684C12.7845 35.1713 13.3304 35.3983 13.9001 35.4H27.7174L25.7107 38.2667ZM31.8167 33.25C31.8167 33.4401 31.7412 33.6224 31.6068 33.7568C31.4724 33.8912 31.2901 33.9667 31.1001 33.9667H13.9001C13.71 33.9667 13.5277 33.8912 13.3933 33.7568C13.2589 33.6224 13.1834 33.4401 13.1834 33.25V24.65H16.7667C17.7171 24.65 18.6285 24.2725 19.3005 23.6005C19.9725 22.9285 20.3501 22.0171 20.3501 21.0667C20.3501 20.1163 19.9725 19.2049 19.3005 18.5329C18.6285 17.8609 17.7171 17.4834 16.7667 17.4834H13.1834V16.05H16.0501C16.2401 16.05 16.4224 15.9745 16.5568 15.8401C16.6912 15.7057 16.7667 15.5234 16.7667 15.3334V6.73336C16.7667 6.54329 16.6912 6.361 16.5568 6.2266C16.4224 6.0922 16.2401 6.0167 16.0501 6.0167H13.1834V3.15003C13.1834 2.95996 13.2589 2.77767 13.3933 2.64327C13.5277 2.50887 13.71 2.43336 13.9001 2.43336H15.4911L15.7992 3.6732C15.9158 4.13799 16.1844 4.55051 16.5622 4.84525C16.9401 5.13999 17.4055 5.30006 17.8847 5.30003H27.1154C27.5946 5.30006 28.0601 5.13999 28.4379 4.84525C28.8157 4.55051 29.0843 4.13799 29.2009 3.6732L29.5091 2.43336H31.1001C31.2901 2.43336 31.4724 2.50887 31.6068 2.64327C31.7412 2.77767 31.8167 2.95996 31.8167 3.15003V3.8667H30.3834C30.1933 3.8667 30.011 3.9422 29.8766 4.0766C29.7422 4.21101 29.6667 4.39329 29.6667 4.58336V11.75C29.6667 11.9401 29.7422 12.1224 29.8766 12.2568C30.011 12.3912 30.1933 12.4667 30.3834 12.4667H31.8167V13.9H31.1001C30.5167 13.8979 29.9466 14.0746 29.4666 14.4062C28.9866 14.7378 28.6196 15.2084 28.4151 15.7548C28.2106 16.3012 28.1784 16.8971 28.3227 17.4624C28.467 18.0277 28.781 18.5352 29.2224 18.9167C28.9122 19.1825 28.6632 19.5123 28.4925 19.8834C28.3218 20.2545 28.2334 20.6582 28.2334 21.0667C28.2334 21.4752 28.3218 21.8789 28.4925 22.25C28.6632 22.6211 28.9122 22.9509 29.2224 23.2167C28.9122 23.4825 28.6632 23.8123 28.4925 24.1834C28.3218 24.5545 28.2334 24.9582 28.2334 25.3667C28.2334 25.7752 28.3218 26.1789 28.4925 26.55C28.6632 26.9211 28.9122 27.2509 29.2224 27.5167C28.781 27.8982 28.467 28.4057 28.3227 28.971C28.1784 29.5363 28.2106 30.1322 28.4151 30.6786C28.6196 31.225 28.9866 31.6956 29.4666 32.0272C29.9466 32.3588 30.5167 32.5355 31.1001 32.5334H31.8167V33.25ZM33.9667 31.1H31.1001C30.7199 31.1 30.3553 30.949 30.0865 30.6802C29.8177 30.4114 29.6667 30.0468 29.6667 29.6667C29.6667 29.2866 29.8177 28.922 30.0865 28.6532C30.3553 28.3844 30.7199 28.2334 31.1001 28.2334H33.9667C34.3469 28.2334 34.7114 28.3844 34.9802 28.6532C35.2491 28.922 35.4001 29.2866 35.4001 29.6667C35.4001 30.0468 35.2491 30.4114 34.9802 30.6802C34.7114 30.949 34.3469 31.1 33.9667 31.1ZM33.9667 26.8H31.1001C30.7199 26.8 30.3553 26.649 30.0865 26.3802C29.8177 26.1114 29.6667 25.7468 29.6667 25.3667C29.6667 24.9866 29.8177 24.622 30.0865 24.3532C30.3553 24.0844 30.7199 23.9334 31.1001 23.9334H33.9667C34.3469 23.9334 34.7114 24.0844 34.9802 24.3532C35.2491 24.622 35.4001 24.9866 35.4001 25.3667C35.4001 25.7468 35.2491 26.1114 34.9802 26.3802C34.7114 26.649 34.3469 26.8 33.9667 26.8ZM33.9667 22.5H31.1001C30.7199 22.5 30.3553 22.349 30.0865 22.0802C29.8177 21.8114 29.6667 21.4468 29.6667 21.0667C29.6667 20.6866 29.8177 20.322 30.0865 20.0532C30.3553 19.7844 30.7199 19.6334 31.1001 19.6334H33.9667C34.3469 19.6334 34.7114 19.7844 34.9802 20.0532C35.2491 20.322 35.4001 20.6866 35.4001 21.0667C35.4001 21.4468 35.2491 21.8114 34.9802 22.0802C34.7114 22.349 34.3469 22.5 33.9667 22.5ZM33.9667 15.3334C34.3469 15.3334 34.7114 15.4844 34.9802 15.7532C35.2491 16.022 35.4001 16.3866 35.4001 16.7667C35.4001 17.1468 35.2491 17.5114 34.9802 17.7802C34.7114 18.049 34.3469 18.2 33.9667 18.2H31.1001C30.7199 18.2 30.3553 18.049 30.0865 17.7802C29.8177 17.5114 29.6667 17.1468 29.6667 16.7667C29.6667 16.3866 29.8177 16.022 30.0865 15.7532C30.3553 15.4844 30.7199 15.3334 31.1001 15.3334H33.9667ZM42.5667 11.0334H31.1001V5.30003H42.5667V11.0334Z" stroke="#4C1DD2" stroke-width="0.5"/>
<path d="M3.86673 8.88336H5.30006V10.3167H3.86673V8.88336Z" stroke="#4C1DD2" stroke-width="0.5"/>
<path d="M6.73339 8.88336H13.9001V10.3167H6.73339V8.88336Z" stroke="#4C1DD2" stroke-width="0.5"/>
<path d="M3.86673 11.75H13.9001V13.1834H3.86673V11.75Z" stroke="#4C1DD2" stroke-width="0.5"/>
<path d="M32.5334 7.45003H35.4001V8.88336H32.5334V7.45003Z" stroke="#4C1DD2" stroke-width="0.5"/>
<path d="M36.8334 7.45003H41.1334V8.88336H36.8334V7.45003Z" stroke="#4C1DD2" stroke-width="0.5"/>
</svg>
