<svg width="47" height="42" viewBox="0 0 47 42" fill="none" xmlns="http://www.w3.org/2000/svg">
<mask id="path-1-inside-1" fill="white">
<path d="M46.7285 30.0183L44.4878 27.832C44.1277 27.4806 43.5465 27.483 43.1894 27.8372C42.8322 28.1914 42.8347 28.7633 43.1947 29.1146L45.4353 31.3009C45.6143 31.4757 45.8481 31.5629 46.0818 31.5629C46.318 31.5629 46.5542 31.4738 46.7336 31.2957C47.0909 30.9415 47.0885 30.3696 46.7285 30.0183Z"/>
<path d="M42.2047 25.595C41.8462 25.2423 41.265 25.2423 40.9063 25.595L40.9047 25.5965C40.5462 25.9493 40.547 26.5205 40.9056 26.8732C41.0846 27.0494 41.3195 27.1374 41.5543 27.1374C41.7896 27.1374 42.0252 27.049 42.2047 26.8725C42.5632 26.5198 42.5632 25.9478 42.2047 25.595Z"/>
<path d="M34.3773 29.7598L43.2842 20.9976C44.6331 19.6705 44.6331 17.511 43.2841 16.1839C42.8084 15.7159 42.2274 15.4138 41.6155 15.2759C41.8253 14.8321 41.9364 14.3451 41.9364 13.8411C41.9364 12.9319 41.5765 12.0771 40.9231 11.4343C40.4106 10.93 39.7653 10.6044 39.065 10.4871C39.4593 9.30531 39.1806 7.95188 38.2271 7.01396C37.7028 6.4983 37.0508 6.18404 36.3703 6.06917C36.4843 5.7288 36.5445 5.36938 36.5445 5.00057C36.5445 4.09136 36.1845 3.2366 35.5311 2.5938C34.8776 1.95099 34.0088 1.5969 33.0846 1.5969C32.4978 1.5969 31.9335 1.74013 31.4322 2.00906L31.3436 1.91541C30.1923 0.698256 28.5626 0.000274658 26.8728 0.000274658H19.6631C19.1561 0.000274658 18.7449 0.404759 18.7449 0.903524V2.08799C18.7449 2.56201 18.8264 3.02348 18.9823 3.4574C18.567 3.28771 18.1177 3.19858 17.6544 3.19858C16.7302 3.19858 15.8614 3.55268 15.2079 4.19548C14.2539 5.13395 13.9755 6.48837 14.3707 7.67049C13.6897 7.78509 13.0367 8.09953 12.512 8.61564C11.8586 9.25853 11.4987 10.1133 11.4987 11.0224C11.4987 11.3905 11.5586 11.7494 11.6721 12.089C10.9727 12.2067 10.3281 12.5322 9.81602 13.036C8.76247 14.0724 8.53179 15.6167 9.12397 16.8755C8.4969 17.0164 7.92097 17.3271 7.45483 17.7856C6.10587 19.1126 6.10587 21.2721 7.45483 22.5992L9.28654 24.4011L0.268979 33.2721C-0.0895784 33.6249 -0.0895784 34.1968 0.268979 34.5496C0.448258 34.7259 0.683258 34.8142 0.918166 34.8142C1.15307 34.8142 1.38807 34.726 1.56735 34.5496L10.6719 25.5928C11.1874 25.8821 11.7723 26.0369 12.3819 26.0369C13.306 26.0369 14.1749 25.6828 14.8284 25.0399C15.5384 24.3416 15.8741 23.4126 15.8368 22.4958C15.8833 22.4977 15.9299 22.4991 15.9764 22.4991C16.8622 22.499 17.7485 22.1672 18.4229 21.5038C19.0763 20.8609 19.4362 20.0061 19.4362 19.097C19.4362 19.051 19.4347 19.0054 19.4328 18.9597C19.4788 18.9615 19.5248 18.9629 19.5709 18.9629C20.4568 18.9629 21.3429 18.6311 22.0174 17.9676C22.6708 17.3247 23.0307 16.47 23.0307 15.5609C23.0307 15.5149 23.0291 15.4692 23.0273 15.4235C23.0733 15.4253 23.1193 15.4268 23.1654 15.4268C24.0514 15.4268 24.9374 15.095 25.6118 14.4315C26.8794 13.1845 26.9557 11.2029 25.8413 9.8672L31.9361 3.87137C32.2428 3.56956 32.6504 3.40349 33.0841 3.40349C33.5178 3.40349 33.9255 3.56956 34.2322 3.87137C34.5389 4.17308 34.7077 4.57405 34.7077 5.00075C34.7077 5.42736 34.5389 5.8285 34.2321 6.13012L30.0731 10.2217C29.7145 10.5744 29.7145 11.1463 30.0731 11.4991C30.2524 11.6754 30.4874 11.7637 30.7223 11.7637C30.9572 11.7637 31.1922 11.6755 31.3714 11.4991L34.6319 8.29162C35.2648 7.66886 36.2949 7.66877 36.928 8.29153C37.561 8.91437 37.561 9.92762 36.928 10.5505L33.6676 13.758C33.309 14.1107 33.309 14.6826 33.6676 15.0355C33.8468 15.2117 34.0818 15.3001 34.3167 15.3001C34.5517 15.3001 34.7866 15.2118 34.9659 15.0355L37.3277 12.712C37.6344 12.4102 38.042 12.2442 38.4757 12.2442C38.9094 12.2442 39.3171 12.4102 39.6238 12.712C39.9305 13.0138 40.0993 13.4147 40.0993 13.8414C40.0993 14.268 39.9305 14.6692 39.6237 14.9708L37.2619 17.2942C36.9034 17.647 36.9034 18.2189 37.2619 18.5717C37.4412 18.748 37.6762 18.8363 37.9111 18.8363C38.146 18.8363 38.381 18.7481 38.5603 18.5717L39.6894 17.4609C40.3225 16.8392 41.3519 16.8393 41.9847 17.4617C42.6178 18.0845 42.6178 19.0978 41.9847 19.7207L33.0779 28.4829C30.8413 30.6832 27.8689 31.957 24.708 32.0699C24.4757 32.0782 24.255 32.1729 24.0909 32.3351L15.8629 40.4595C15.505 40.8128 15.506 41.3847 15.8653 41.7369C16.0444 41.9124 16.2789 42.0003 16.5133 42.0003C16.7488 42.0003 16.9844 41.9117 17.1637 41.7345L23.2156 35.7589C24.7528 36.7291 26.5607 37.1904 28.3989 37.0708L33.1354 41.7305C33.3147 41.9068 33.5497 41.9951 33.7846 41.9951C34.0196 41.9951 34.2545 41.9069 34.4338 41.7305C34.7923 41.3778 34.7923 40.8059 34.4338 40.453L29.3978 35.4983C29.2072 35.3108 28.9422 35.215 28.6735 35.2367L28.3825 35.2601C27.0388 35.3685 25.7107 35.079 24.5511 34.4397L25.1412 33.8571C28.6309 33.6454 31.8982 32.1988 34.3773 29.7598ZM13.53 23.7626C13.2233 24.0644 12.8156 24.2305 12.382 24.2305C11.9483 24.2305 11.5406 24.0644 11.234 23.7626L8.75311 21.3221C8.12008 20.6993 8.12008 19.686 8.75311 19.0631C9.0598 18.7613 9.46756 18.5953 9.90121 18.5953C10.3349 18.5953 10.7426 18.7613 11.0492 19.0631L13.5301 21.5037C14.1631 22.1264 14.1631 23.1398 13.53 23.7626ZM17.1247 20.2263C16.4916 20.8491 15.4613 20.8491 14.8285 20.2263L11.114 16.5721C10.481 15.9494 10.481 14.936 11.114 14.3133C11.4207 14.0115 11.8285 13.8454 12.262 13.8454C12.6958 13.8454 13.1034 14.0115 13.41 14.3133L17.1244 17.9674C17.4312 18.2692 17.6001 18.6702 17.6001 19.0968C17.6001 19.5234 17.4313 19.9246 17.1247 20.2263ZM20.7192 16.6901C20.0861 17.3127 19.0559 17.3128 18.423 16.6901L13.8099 12.1519C13.5032 11.8502 13.3344 11.4492 13.3344 11.0225C13.3344 10.5959 13.5032 10.1947 13.81 9.89312C14.1265 9.58174 14.5424 9.42605 14.958 9.42605C15.3735 9.42605 15.7889 9.58156 16.1053 9.8924L20.719 14.4312C21.0256 14.7329 21.1945 15.1339 21.1945 15.5606C21.1947 15.9873 21.0259 16.3884 20.7192 16.6901ZM24.3137 13.1538C23.6807 13.7766 22.6507 13.7766 22.0176 13.1538L17.4046 8.61564C17.4041 8.61519 17.4036 8.61474 17.403 8.61419L16.5059 7.73163C15.8729 7.10878 15.8729 6.09554 16.5059 5.47269C16.8224 5.16122 17.2382 5.00553 17.654 5.00553C18.0697 5.00553 18.4856 5.16122 18.802 5.47269L24.3136 10.8948C24.6203 11.1965 24.7892 11.5976 24.7892 12.0242C24.7893 12.451 24.6205 12.8522 24.3137 13.1538ZM24.5552 8.5778L22.0333 6.09689C22.3193 6.15694 22.6133 6.18882 22.9126 6.18873C22.9193 6.18873 22.9261 6.18873 22.9329 6.18873L25.4525 6.17708C25.9595 6.17474 26.3687 5.76844 26.3663 5.26959C26.3639 4.77218 25.9533 4.37058 25.4483 4.37058C25.4468 4.37058 25.4453 4.37058 25.4439 4.37058L22.9242 4.38223C22.9204 4.38223 22.9167 4.38223 22.9128 4.38223C22.292 4.38223 21.7081 4.14518 21.2678 3.71414C20.8248 3.28031 20.5809 2.70289 20.5809 2.0879V1.80668H26.8725C28.0544 1.80668 29.194 2.29479 29.9993 3.14602L30.0366 3.18549L24.5552 8.5778Z"/>
</mask>
<path d="M46.7285 30.0183L44.4878 27.832C44.1277 27.4806 43.5465 27.483 43.1894 27.8372C42.8322 28.1914 42.8347 28.7633 43.1947 29.1146L45.4353 31.3009C45.6143 31.4757 45.8481 31.5629 46.0818 31.5629C46.318 31.5629 46.5542 31.4738 46.7336 31.2957C47.0909 30.9415 47.0885 30.3696 46.7285 30.0183Z" fill="#4C1DD2"/>
<path d="M42.2047 25.595C41.8462 25.2423 41.265 25.2423 40.9063 25.595L40.9047 25.5965C40.5462 25.9493 40.547 26.5205 40.9056 26.8732C41.0846 27.0494 41.3195 27.1374 41.5543 27.1374C41.7896 27.1374 42.0252 27.049 42.2047 26.8725C42.5632 26.5198 42.5632 25.9478 42.2047 25.595Z" fill="#4C1DD2"/>
<path d="M34.3773 29.7598L43.2842 20.9976C44.6331 19.6705 44.6331 17.511 43.2841 16.1839C42.8084 15.7159 42.2274 15.4138 41.6155 15.2759C41.8253 14.8321 41.9364 14.3451 41.9364 13.8411C41.9364 12.9319 41.5765 12.0771 40.9231 11.4343C40.4106 10.93 39.7653 10.6044 39.065 10.4871C39.4593 9.30531 39.1806 7.95188 38.2271 7.01396C37.7028 6.4983 37.0508 6.18404 36.3703 6.06917C36.4843 5.7288 36.5445 5.36938 36.5445 5.00057C36.5445 4.09136 36.1845 3.2366 35.5311 2.5938C34.8776 1.95099 34.0088 1.5969 33.0846 1.5969C32.4978 1.5969 31.9335 1.74013 31.4322 2.00906L31.3436 1.91541C30.1923 0.698256 28.5626 0.000274658 26.8728 0.000274658H19.6631C19.1561 0.000274658 18.7449 0.404759 18.7449 0.903524V2.08799C18.7449 2.56201 18.8264 3.02348 18.9823 3.4574C18.567 3.28771 18.1177 3.19858 17.6544 3.19858C16.7302 3.19858 15.8614 3.55268 15.2079 4.19548C14.2539 5.13395 13.9755 6.48837 14.3707 7.67049C13.6897 7.78509 13.0367 8.09953 12.512 8.61564C11.8586 9.25853 11.4987 10.1133 11.4987 11.0224C11.4987 11.3905 11.5586 11.7494 11.6721 12.089C10.9727 12.2067 10.3281 12.5322 9.81602 13.036C8.76247 14.0724 8.53179 15.6167 9.12397 16.8755C8.4969 17.0164 7.92097 17.3271 7.45483 17.7856C6.10587 19.1126 6.10587 21.2721 7.45483 22.5992L9.28654 24.4011L0.268979 33.2721C-0.0895784 33.6249 -0.0895784 34.1968 0.268979 34.5496C0.448258 34.7259 0.683258 34.8142 0.918166 34.8142C1.15307 34.8142 1.38807 34.726 1.56735 34.5496L10.6719 25.5928C11.1874 25.8821 11.7723 26.0369 12.3819 26.0369C13.306 26.0369 14.1749 25.6828 14.8284 25.0399C15.5384 24.3416 15.8741 23.4126 15.8368 22.4958C15.8833 22.4977 15.9299 22.4991 15.9764 22.4991C16.8622 22.499 17.7485 22.1672 18.4229 21.5038C19.0763 20.8609 19.4362 20.0061 19.4362 19.097C19.4362 19.051 19.4347 19.0054 19.4328 18.9597C19.4788 18.9615 19.5248 18.9629 19.5709 18.9629C20.4568 18.9629 21.3429 18.6311 22.0174 17.9676C22.6708 17.3247 23.0307 16.47 23.0307 15.5609C23.0307 15.5149 23.0291 15.4692 23.0273 15.4235C23.0733 15.4253 23.1193 15.4268 23.1654 15.4268C24.0514 15.4268 24.9374 15.095 25.6118 14.4315C26.8794 13.1845 26.9557 11.2029 25.8413 9.8672L31.9361 3.87137C32.2428 3.56956 32.6504 3.40349 33.0841 3.40349C33.5178 3.40349 33.9255 3.56956 34.2322 3.87137C34.5389 4.17308 34.7077 4.57405 34.7077 5.00075C34.7077 5.42736 34.5389 5.8285 34.2321 6.13012L30.0731 10.2217C29.7145 10.5744 29.7145 11.1463 30.0731 11.4991C30.2524 11.6754 30.4874 11.7637 30.7223 11.7637C30.9572 11.7637 31.1922 11.6755 31.3714 11.4991L34.6319 8.29162C35.2648 7.66886 36.2949 7.66877 36.928 8.29153C37.561 8.91437 37.561 9.92762 36.928 10.5505L33.6676 13.758C33.309 14.1107 33.309 14.6826 33.6676 15.0355C33.8468 15.2117 34.0818 15.3001 34.3167 15.3001C34.5517 15.3001 34.7866 15.2118 34.9659 15.0355L37.3277 12.712C37.6344 12.4102 38.042 12.2442 38.4757 12.2442C38.9094 12.2442 39.3171 12.4102 39.6238 12.712C39.9305 13.0138 40.0993 13.4147 40.0993 13.8414C40.0993 14.268 39.9305 14.6692 39.6237 14.9708L37.2619 17.2942C36.9034 17.647 36.9034 18.2189 37.2619 18.5717C37.4412 18.748 37.6762 18.8363 37.9111 18.8363C38.146 18.8363 38.381 18.7481 38.5603 18.5717L39.6894 17.4609C40.3225 16.8392 41.3519 16.8393 41.9847 17.4617C42.6178 18.0845 42.6178 19.0978 41.9847 19.7207L33.0779 28.4829C30.8413 30.6832 27.8689 31.957 24.708 32.0699C24.4757 32.0782 24.255 32.1729 24.0909 32.3351L15.8629 40.4595C15.505 40.8128 15.506 41.3847 15.8653 41.7369C16.0444 41.9124 16.2789 42.0003 16.5133 42.0003C16.7488 42.0003 16.9844 41.9117 17.1637 41.7345L23.2156 35.7589C24.7528 36.7291 26.5607 37.1904 28.3989 37.0708L33.1354 41.7305C33.3147 41.9068 33.5497 41.9951 33.7846 41.9951C34.0196 41.9951 34.2545 41.9069 34.4338 41.7305C34.7923 41.3778 34.7923 40.8059 34.4338 40.453L29.3978 35.4983C29.2072 35.3108 28.9422 35.215 28.6735 35.2367L28.3825 35.2601C27.0388 35.3685 25.7107 35.079 24.5511 34.4397L25.1412 33.8571C28.6309 33.6454 31.8982 32.1988 34.3773 29.7598ZM13.53 23.7626C13.2233 24.0644 12.8156 24.2305 12.382 24.2305C11.9483 24.2305 11.5406 24.0644 11.234 23.7626L8.75311 21.3221C8.12008 20.6993 8.12008 19.686 8.75311 19.0631C9.0598 18.7613 9.46756 18.5953 9.90121 18.5953C10.3349 18.5953 10.7426 18.7613 11.0492 19.0631L13.5301 21.5037C14.1631 22.1264 14.1631 23.1398 13.53 23.7626ZM17.1247 20.2263C16.4916 20.8491 15.4613 20.8491 14.8285 20.2263L11.114 16.5721C10.481 15.9494 10.481 14.936 11.114 14.3133C11.4207 14.0115 11.8285 13.8454 12.262 13.8454C12.6958 13.8454 13.1034 14.0115 13.41 14.3133L17.1244 17.9674C17.4312 18.2692 17.6001 18.6702 17.6001 19.0968C17.6001 19.5234 17.4313 19.9246 17.1247 20.2263ZM20.7192 16.6901C20.0861 17.3127 19.0559 17.3128 18.423 16.6901L13.8099 12.1519C13.5032 11.8502 13.3344 11.4492 13.3344 11.0225C13.3344 10.5959 13.5032 10.1947 13.81 9.89312C14.1265 9.58174 14.5424 9.42605 14.958 9.42605C15.3735 9.42605 15.7889 9.58156 16.1053 9.8924L20.719 14.4312C21.0256 14.7329 21.1945 15.1339 21.1945 15.5606C21.1947 15.9873 21.0259 16.3884 20.7192 16.6901ZM24.3137 13.1538C23.6807 13.7766 22.6507 13.7766 22.0176 13.1538L17.4046 8.61564C17.4041 8.61519 17.4036 8.61474 17.403 8.61419L16.5059 7.73163C15.8729 7.10878 15.8729 6.09554 16.5059 5.47269C16.8224 5.16122 17.2382 5.00553 17.654 5.00553C18.0697 5.00553 18.4856 5.16122 18.802 5.47269L24.3136 10.8948C24.6203 11.1965 24.7892 11.5976 24.7892 12.0242C24.7893 12.451 24.6205 12.8522 24.3137 13.1538ZM24.5552 8.5778L22.0333 6.09689C22.3193 6.15694 22.6133 6.18882 22.9126 6.18873C22.9193 6.18873 22.9261 6.18873 22.9329 6.18873L25.4525 6.17708C25.9595 6.17474 26.3687 5.76844 26.3663 5.26959C26.3639 4.77218 25.9533 4.37058 25.4483 4.37058C25.4468 4.37058 25.4453 4.37058 25.4439 4.37058L22.9242 4.38223C22.9204 4.38223 22.9167 4.38223 22.9128 4.38223C22.292 4.38223 21.7081 4.14518 21.2678 3.71414C20.8248 3.28031 20.5809 2.70289 20.5809 2.0879V1.80668H26.8725C28.0544 1.80668 29.194 2.29479 29.9993 3.14602L30.0366 3.18549L24.5552 8.5778Z" fill="#4C1DD2"/>
<path d="M46.7285 30.0183L44.4878 27.832C44.1277 27.4806 43.5465 27.483 43.1894 27.8372C42.8322 28.1914 42.8347 28.7633 43.1947 29.1146L45.4353 31.3009C45.6143 31.4757 45.8481 31.5629 46.0818 31.5629C46.318 31.5629 46.5542 31.4738 46.7336 31.2957C47.0909 30.9415 47.0885 30.3696 46.7285 30.0183Z" stroke="#4C1DD2" stroke-width="2" mask="url(#path-1-inside-1)"/>
<path d="M42.2047 25.595C41.8462 25.2423 41.265 25.2423 40.9063 25.595L40.9047 25.5965C40.5462 25.9493 40.547 26.5205 40.9056 26.8732C41.0846 27.0494 41.3195 27.1374 41.5543 27.1374C41.7896 27.1374 42.0252 27.049 42.2047 26.8725C42.5632 26.5198 42.5632 25.9478 42.2047 25.595Z" stroke="#4C1DD2" stroke-width="2" mask="url(#path-1-inside-1)"/>
<path d="M34.3773 29.7598L43.2842 20.9976C44.6331 19.6705 44.6331 17.511 43.2841 16.1839C42.8084 15.7159 42.2274 15.4138 41.6155 15.2759C41.8253 14.8321 41.9364 14.3451 41.9364 13.8411C41.9364 12.9319 41.5765 12.0771 40.9231 11.4343C40.4106 10.93 39.7653 10.6044 39.065 10.4871C39.4593 9.30531 39.1806 7.95188 38.2271 7.01396C37.7028 6.4983 37.0508 6.18404 36.3703 6.06917C36.4843 5.7288 36.5445 5.36938 36.5445 5.00057C36.5445 4.09136 36.1845 3.2366 35.5311 2.5938C34.8776 1.95099 34.0088 1.5969 33.0846 1.5969C32.4978 1.5969 31.9335 1.74013 31.4322 2.00906L31.3436 1.91541C30.1923 0.698256 28.5626 0.000274658 26.8728 0.000274658H19.6631C19.1561 0.000274658 18.7449 0.404759 18.7449 0.903524V2.08799C18.7449 2.56201 18.8264 3.02348 18.9823 3.4574C18.567 3.28771 18.1177 3.19858 17.6544 3.19858C16.7302 3.19858 15.8614 3.55268 15.2079 4.19548C14.2539 5.13395 13.9755 6.48837 14.3707 7.67049C13.6897 7.78509 13.0367 8.09953 12.512 8.61564C11.8586 9.25853 11.4987 10.1133 11.4987 11.0224C11.4987 11.3905 11.5586 11.7494 11.6721 12.089C10.9727 12.2067 10.3281 12.5322 9.81602 13.036C8.76247 14.0724 8.53179 15.6167 9.12397 16.8755C8.4969 17.0164 7.92097 17.3271 7.45483 17.7856C6.10587 19.1126 6.10587 21.2721 7.45483 22.5992L9.28654 24.4011L0.268979 33.2721C-0.0895784 33.6249 -0.0895784 34.1968 0.268979 34.5496C0.448258 34.7259 0.683258 34.8142 0.918166 34.8142C1.15307 34.8142 1.38807 34.726 1.56735 34.5496L10.6719 25.5928C11.1874 25.8821 11.7723 26.0369 12.3819 26.0369C13.306 26.0369 14.1749 25.6828 14.8284 25.0399C15.5384 24.3416 15.8741 23.4126 15.8368 22.4958C15.8833 22.4977 15.9299 22.4991 15.9764 22.4991C16.8622 22.499 17.7485 22.1672 18.4229 21.5038C19.0763 20.8609 19.4362 20.0061 19.4362 19.097C19.4362 19.051 19.4347 19.0054 19.4328 18.9597C19.4788 18.9615 19.5248 18.9629 19.5709 18.9629C20.4568 18.9629 21.3429 18.6311 22.0174 17.9676C22.6708 17.3247 23.0307 16.47 23.0307 15.5609C23.0307 15.5149 23.0291 15.4692 23.0273 15.4235C23.0733 15.4253 23.1193 15.4268 23.1654 15.4268C24.0514 15.4268 24.9374 15.095 25.6118 14.4315C26.8794 13.1845 26.9557 11.2029 25.8413 9.8672L31.9361 3.87137C32.2428 3.56956 32.6504 3.40349 33.0841 3.40349C33.5178 3.40349 33.9255 3.56956 34.2322 3.87137C34.5389 4.17308 34.7077 4.57405 34.7077 5.00075C34.7077 5.42736 34.5389 5.8285 34.2321 6.13012L30.0731 10.2217C29.7145 10.5744 29.7145 11.1463 30.0731 11.4991C30.2524 11.6754 30.4874 11.7637 30.7223 11.7637C30.9572 11.7637 31.1922 11.6755 31.3714 11.4991L34.6319 8.29162C35.2648 7.66886 36.2949 7.66877 36.928 8.29153C37.561 8.91437 37.561 9.92762 36.928 10.5505L33.6676 13.758C33.309 14.1107 33.309 14.6826 33.6676 15.0355C33.8468 15.2117 34.0818 15.3001 34.3167 15.3001C34.5517 15.3001 34.7866 15.2118 34.9659 15.0355L37.3277 12.712C37.6344 12.4102 38.042 12.2442 38.4757 12.2442C38.9094 12.2442 39.3171 12.4102 39.6238 12.712C39.9305 13.0138 40.0993 13.4147 40.0993 13.8414C40.0993 14.268 39.9305 14.6692 39.6237 14.9708L37.2619 17.2942C36.9034 17.647 36.9034 18.2189 37.2619 18.5717C37.4412 18.748 37.6762 18.8363 37.9111 18.8363C38.146 18.8363 38.381 18.7481 38.5603 18.5717L39.6894 17.4609C40.3225 16.8392 41.3519 16.8393 41.9847 17.4617C42.6178 18.0845 42.6178 19.0978 41.9847 19.7207L33.0779 28.4829C30.8413 30.6832 27.8689 31.957 24.708 32.0699C24.4757 32.0782 24.255 32.1729 24.0909 32.3351L15.8629 40.4595C15.505 40.8128 15.506 41.3847 15.8653 41.7369C16.0444 41.9124 16.2789 42.0003 16.5133 42.0003C16.7488 42.0003 16.9844 41.9117 17.1637 41.7345L23.2156 35.7589C24.7528 36.7291 26.5607 37.1904 28.3989 37.0708L33.1354 41.7305C33.3147 41.9068 33.5497 41.9951 33.7846 41.9951C34.0196 41.9951 34.2545 41.9069 34.4338 41.7305C34.7923 41.3778 34.7923 40.8059 34.4338 40.453L29.3978 35.4983C29.2072 35.3108 28.9422 35.215 28.6735 35.2367L28.3825 35.2601C27.0388 35.3685 25.7107 35.079 24.5511 34.4397L25.1412 33.8571C28.6309 33.6454 31.8982 32.1988 34.3773 29.7598ZM13.53 23.7626C13.2233 24.0644 12.8156 24.2305 12.382 24.2305C11.9483 24.2305 11.5406 24.0644 11.234 23.7626L8.75311 21.3221C8.12008 20.6993 8.12008 19.686 8.75311 19.0631C9.0598 18.7613 9.46756 18.5953 9.90121 18.5953C10.3349 18.5953 10.7426 18.7613 11.0492 19.0631L13.5301 21.5037C14.1631 22.1264 14.1631 23.1398 13.53 23.7626ZM17.1247 20.2263C16.4916 20.8491 15.4613 20.8491 14.8285 20.2263L11.114 16.5721C10.481 15.9494 10.481 14.936 11.114 14.3133C11.4207 14.0115 11.8285 13.8454 12.262 13.8454C12.6958 13.8454 13.1034 14.0115 13.41 14.3133L17.1244 17.9674C17.4312 18.2692 17.6001 18.6702 17.6001 19.0968C17.6001 19.5234 17.4313 19.9246 17.1247 20.2263ZM20.7192 16.6901C20.0861 17.3127 19.0559 17.3128 18.423 16.6901L13.8099 12.1519C13.5032 11.8502 13.3344 11.4492 13.3344 11.0225C13.3344 10.5959 13.5032 10.1947 13.81 9.89312C14.1265 9.58174 14.5424 9.42605 14.958 9.42605C15.3735 9.42605 15.7889 9.58156 16.1053 9.8924L20.719 14.4312C21.0256 14.7329 21.1945 15.1339 21.1945 15.5606C21.1947 15.9873 21.0259 16.3884 20.7192 16.6901ZM24.3137 13.1538C23.6807 13.7766 22.6507 13.7766 22.0176 13.1538L17.4046 8.61564C17.4041 8.61519 17.4036 8.61474 17.403 8.61419L16.5059 7.73163C15.8729 7.10878 15.8729 6.09554 16.5059 5.47269C16.8224 5.16122 17.2382 5.00553 17.654 5.00553C18.0697 5.00553 18.4856 5.16122 18.802 5.47269L24.3136 10.8948C24.6203 11.1965 24.7892 11.5976 24.7892 12.0242C24.7893 12.451 24.6205 12.8522 24.3137 13.1538ZM24.5552 8.5778L22.0333 6.09689C22.3193 6.15694 22.6133 6.18882 22.9126 6.18873C22.9193 6.18873 22.9261 6.18873 22.9329 6.18873L25.4525 6.17708C25.9595 6.17474 26.3687 5.76844 26.3663 5.26959C26.3639 4.77218 25.9533 4.37058 25.4483 4.37058C25.4468 4.37058 25.4453 4.37058 25.4439 4.37058L22.9242 4.38223C22.9204 4.38223 22.9167 4.38223 22.9128 4.38223C22.292 4.38223 21.7081 4.14518 21.2678 3.71414C20.8248 3.28031 20.5809 2.70289 20.5809 2.0879V1.80668H26.8725C28.0544 1.80668 29.194 2.29479 29.9993 3.14602L30.0366 3.18549L24.5552 8.5778Z" stroke="#4C1DD2" stroke-width="2" mask="url(#path-1-inside-1)"/>
</svg>
